<?xml version="1.0" standalone="no"?>
<!DOCTYPE svg PUBLIC "-//W3C//DTD SVG 20010904//EN"
 "http://www.w3.org/TR/2001/REC-SVG-20010904/DTD/svg10.dtd">
<svg version="1.0" xmlns="http://www.w3.org/2000/svg"
 width="720.000000pt" height="705.000000pt" viewBox="0 0 720.000000 705.000000"
 preserveAspectRatio="xMidYMid meet">
<metadata>
Created by potrace 1.15, written by Peter Selinger 2001-2017
</metadata>
<g transform="translate(0.000000,705.000000) scale(0.100000,-0.100000)"
fill="#000000" stroke="none">
<path d="M2894 6287 c-19 -22 -44 -268 -55 -537 -6 -140 -12 -260 -14 -266 -2
-6 -34 -12 -77 -13 -103 -3 -150 -15 -255 -68 -82 -40 -95 -44 -112 -32 -89
64 -219 156 -233 164 -10 6 -66 40 -125 76 -59 37 -130 79 -158 94 -27 15 -98
54 -156 86 -59 33 -118 59 -132 59 -33 0 -54 -30 -62 -90 -4 -25 -13 -76 -20
-115 -36 -185 -65 -473 -76 -755 l-11 -295 -40 -68 c-58 -100 -182 -352 -211
-432 -48 -127 -94 -302 -134 -510 -14 -71 -17 -145 -18 -355 0 -146 4 -310 8
-365 l8 -100 -34 -18 c-61 -33 -125 -135 -147 -232 -31 -138 55 -387 196 -566
43 -53 249 -250 306 -290 33 -24 72 -53 86 -65 l25 -20 -60 -95 c-70 -111
-148 -249 -188 -336 -16 -35 -34 -63 -40 -63 -26 0 -129 154 -265 395 -176
310 -243 375 -387 375 -248 0 -400 -272 -353 -627 20 -147 107 -370 207 -531
34 -55 128 -198 143 -217 40 -52 193 -203 260 -257 41 -33 84 -67 95 -77 11
-9 38 -29 60 -46 22 -16 50 -39 63 -52 27 -28 43 -29 72 -5 19 16 23 32 31
132 17 237 52 474 90 617 36 137 120 327 226 512 54 94 123 204 138 219 1 2
30 -13 63 -33 33 -19 67 -35 75 -35 32 0 59 57 39 86 -4 6 -57 40 -118 77
-159 95 -256 170 -372 289 -116 117 -158 173 -209 272 -95 188 -104 312 -29
429 32 49 63 64 168 82 37 6 58 27 58 59 0 25 -37 56 -68 56 l-27 0 -5 103
c-3 56 -5 206 -5 332 1 192 4 251 23 355 44 247 107 450 202 644 68 138 139
267 160 291 15 17 18 51 24 250 4 127 11 284 16 350 12 143 70 567 80 578 4 5
25 -2 46 -14 21 -12 73 -41 114 -64 199 -112 274 -158 415 -257 61 -42 115
-81 120 -85 60 -51 104 -55 161 -17 98 67 178 91 327 100 95 6 110 10 122 28
9 15 16 104 24 321 9 257 24 441 36 453 2 2 14 -3 27 -11 12 -8 68 -38 123
-67 122 -64 251 -147 325 -209 58 -49 268 -257 360 -358 l55 -60 165 -7 c171
-7 306 -20 375 -36 22 -5 80 -19 129 -30 48 -12 123 -34 165 -51 141 -55 419
-198 429 -221 2 -5 8 -8 13 -8 24 0 217 -148 294 -226 39 -38 154 -173 180
-210 94 -135 256 -437 294 -551 36 -106 71 -293 83 -441 14 -167 24 -186 106
-197 26 -3 75 -13 109 -22 75 -19 129 -67 171 -153 47 -95 42 -297 -10 -454
-22 -67 -98 -226 -108 -226 -4 0 -45 23 -91 50 -116 70 -170 85 -304 84 -92 0
-123 -5 -188 -27 -117 -41 -226 -119 -287 -207 -13 -19 -27 -37 -31 -40 -16
-12 -85 -131 -120 -206 -54 -118 -72 -198 -71 -329 1 -342 147 -630 427 -840
74 -56 224 -133 274 -141 36 -6 38 -9 59 -72 94 -290 108 -387 77 -549 -16
-85 -41 -161 -80 -247 -14 -30 -29 -66 -35 -80 l-10 -26 58 0 57 0 19 43 c75
173 105 301 106 452 0 122 -21 224 -96 456 -4 12 14 23 83 47 184 66 312 209
379 421 38 121 -7 374 -98 558 l-41 83 27 82 c22 64 28 103 29 182 2 92 0 106
-25 157 -16 31 -28 59 -28 62 0 3 23 54 51 114 94 198 119 297 119 471 0 97
-4 129 -24 183 -56 159 -166 253 -323 274 -29 4 -56 12 -61 18 -5 7 -12 59
-15 117 -10 170 -45 335 -99 475 -66 173 -233 476 -305 555 -13 14 -23 28 -23
32 0 22 -195 225 -276 288 -21 17 -46 36 -54 43 -147 115 -461 282 -656 350
-161 56 -366 90 -623 103 l-144 7 -96 100 c-107 112 -270 272 -316 309 -90 74
-218 152 -407 248 -138 70 -190 84 -214 57z m3119 -3648 c107 -36 246 -140
283 -211 27 -52 15 -192 -25 -294 -31 -79 -113 -224 -158 -281 -30 -37 -30
-76 1 -92 13 -7 32 -10 43 -7 19 6 123 146 123 166 0 20 29 10 35 -12 4 -13
13 -36 21 -53 37 -84 68 -222 68 -305 0 -74 -5 -95 -33 -163 -46 -107 -87
-164 -158 -219 -128 -96 -261 -119 -383 -63 -151 69 -313 209 -412 357 -105
159 -161 437 -124 623 26 132 115 296 229 421 120 131 328 188 490 133z
m-5412 -926 c37 -29 99 -106 99 -123 0 -5 4 -10 9 -10 5 0 13 -10 17 -22 4
-13 10 -25 13 -28 4 -3 33 -52 66 -110 66 -118 165 -282 175 -290 3 -3 17 -21
30 -40 13 -19 43 -55 67 -80 47 -50 49 -57 27 -115 -48 -133 -90 -361 -110
-613 -4 -45 -9 -84 -13 -86 -13 -8 -208 150 -300 244 -92 93 -195 247 -282
420 -100 201 -133 326 -133 505 0 107 3 127 27 188 36 92 59 122 120 157 70
40 139 41 188 3z"/>
<path d="M303 1523 c-26 -39 -30 -170 -8 -248 9 -33 19 -72 22 -87 3 -17 12
-28 22 -28 14 -1 13 -3 -3 -15 -16 -12 -17 -17 -5 -31 7 -9 12 -28 11 -43 -2
-18 5 -34 21 -49 15 -14 23 -31 20 -41 -3 -13 2 -20 18 -24 19 -5 20 -8 9 -22
-18 -22 -7 -29 33 -21 23 4 37 13 40 26 6 22 -27 70 -47 70 -7 0 -21 9 -30 19
-17 19 -17 19 2 14 11 -2 23 0 27 7 9 15 -22 60 -41 60 -13 0 -14 3 -5 14 7 8
11 23 9 32 -2 14 6 20 35 25 46 7 51 12 38 37 -8 15 -7 23 4 32 10 8 15 31 15
64 0 62 -33 137 -85 195 -45 49 -76 53 -102 14z m96 -83 c47 -60 63 -104 58
-162 -4 -43 -4 -43 -45 -46 -23 -2 -42 -7 -42 -13 0 -5 -4 -9 -8 -9 -16 0 -45
151 -38 201 8 58 15 79 27 79 5 0 26 -22 48 -50z"/>
<path d="M497 920 c-33 -10 -67 -46 -67 -71 0 -28 49 -79 76 -79 14 0 27 -7
30 -15 7 -16 30 -20 38 -6 10 15 -38 101 -56 101 -11 0 -18 -8 -18 -20 0 -11
-4 -20 -10 -20 -14 0 -13 43 2 58 17 17 51 15 93 -5 36 -17 48 -43 19 -43 -8
0 -12 -4 -9 -10 8 -13 52 -13 60 1 14 21 -6 60 -43 83 -45 29 -78 36 -115 26z"/>
<path d="M3215 5702 c-17 -12 -44 -101 -62 -204 -13 -80 -14 -100 -3 -112 20
-25 61 -19 145 19 73 34 82 35 146 29 55 -5 71 -3 83 9 21 21 20 72 -1 98 -24
28 -134 109 -149 109 -7 0 -14 4 -16 8 -3 9 -105 52 -122 52 -6 0 -16 -4 -21
-8z"/>
<path d="M1892 5242 c-14 -21 -14 -33 1 -122 18 -107 51 -217 72 -239 12 -12
25 -8 92 27 43 22 101 52 130 67 84 44 82 84 -6 142 -31 20 -58 39 -61 43 -3
3 -40 29 -83 58 -86 57 -120 62 -145 24z"/>
<path d="M5684 3727 c-137 -121 -213 -171 -364 -245 -131 -64 -252 -102 -445
-141 -104 -21 -154 -36 -162 -48 -19 -25 -16 -31 20 -54 27 -17 44 -19 107
-16 41 3 85 8 97 12 19 6 25 0 46 -42 14 -26 34 -55 44 -64 60 -49 193 -65
261 -30 20 11 54 37 76 59 31 33 42 54 57 119 10 43 19 89 19 103 0 20 10 30
52 50 206 100 339 250 284 323 -20 26 -39 21 -92 -26z"/>
<path d="M2427 3426 c-8 -6 -17 -21 -20 -33 -6 -26 19 -47 93 -78 25 -10 79
-34 120 -53 109 -50 299 -110 382 -122 39 -6 72 -11 73 -13 1 -1 8 -18 15 -37
42 -111 134 -174 254 -175 56 0 78 5 106 22 47 29 107 110 115 156 l7 37 52 0
c75 0 154 26 188 62 37 40 31 53 -23 51 -190 -7 -478 -4 -554 6 -232 32 -556
101 -639 136 -85 36 -155 53 -169 41z"/>
<path d="M3038 2849 c-33 -19 -21 -39 23 -39 90 0 196 -37 329 -114 253 -147
366 -258 497 -485 52 -91 77 -116 92 -92 10 15 -8 69 -40 126 -9 17 -20 39
-23 51 -6 21 -6 21 46 7 35 -9 88 -13 153 -11 87 3 105 7 140 30 32 20 72 63
100 106 1 1 20 -16 43 -37 61 -59 138 -84 234 -78 52 3 92 12 123 28 50 25
135 109 135 134 0 25 -40 17 -78 -16 -51 -45 -92 -59 -171 -59 -77 0 -143 20
-176 55 -56 56 -60 65 -60 139 0 77 -15 107 -50 102 -26 -4 -39 -34 -46 -108
-8 -85 -46 -151 -110 -191 -41 -25 -57 -28 -163 -34 -85 -4 -119 -10 -123 -20
-8 -21 -20 -15 -34 19 -13 32 -96 151 -139 201 -14 15 -49 47 -80 70 -30 23
-57 44 -60 47 -12 13 -151 92 -210 119 -110 51 -303 79 -352 50z"/>
<path d="M2444 2590 c-206 -44 -384 -163 -454 -306 -30 -62 -33 -78 -38 -183
-4 -101 7 -243 24 -306 6 -25 -55 -121 -125 -193 -58 -60 -65 -92 -26 -118 23
-15 27 -15 51 0 34 23 100 92 132 140 l26 38 46 -51 c48 -55 75 -64 103 -33
24 27 21 44 -17 93 -65 86 -85 137 -101 263 -17 126 -10 230 19 300 34 81 174
185 307 230 67 22 195 37 268 30 275 -25 549 -253 616 -514 25 -94 16 -265
-20 -384 -73 -244 -210 -516 -338 -669 -53 -64 -159 -148 -227 -180 -74 -35
-196 -74 -305 -98 -49 -11 -101 -26 -115 -32 -49 -23 -32 -96 23 -97 27 0 215
47 303 76 90 30 203 84 254 121 62 46 180 176 235 258 105 159 211 390 270
586 74 246 54 452 -63 646 -95 156 -295 311 -477 369 -58 18 -307 28 -371 14z"/>
</g>
</svg>
