<?xml version="1.0" standalone="no"?>
<!DOCTYPE svg PUBLIC "-//W3C//DTD SVG 20010904//EN"
 "http://www.w3.org/TR/2001/REC-SVG-20010904/DTD/svg10.dtd">
<svg version="1.0" xmlns="http://www.w3.org/2000/svg"
 width="999.000000pt" height="668.000000pt" viewBox="0 0 999.000000 668.000000"
 preserveAspectRatio="xMidYMid meet">
<metadata>
Created by potrace 1.15, written by Peter Selinger 2001-2017
</metadata>
<g transform="translate(0.000000,668.000000) scale(0.100000,-0.100000)"
fill="#000000" stroke="none">
<path d="M8025 6625 c-302 -86 -605 -215 -828 -352 -76 -46 -174 -118 -197
-143 -3 -3 -51 -42 -106 -87 -81 -64 -112 -83 -155 -93 -83 -18 -241 -99 -395
-201 -249 -164 -317 -230 -555 -530 -222 -280 -232 -295 -284 -447 -18 -51
-35 -95 -38 -98 -3 -3 -35 4 -72 16 -52 17 -69 19 -80 10 -18 -15 -19 -36 -3
-46 6 -4 41 -17 77 -29 l66 -22 -3 -39 c-2 -22 -8 -43 -12 -48 -5 -5 -33 -4
-67 3 -47 9 -60 9 -71 -3 -31 -30 -9 -46 101 -70 30 -7 33 -22 21 -109 -6 -40
-10 -46 -36 -51 -42 -8 -102 -54 -133 -101 -64 -98 -94 -278 -59 -351 48 -102
248 -192 464 -210 l75 -6 88 -84 c48 -46 82 -84 75 -84 -7 0 -71 7 -143 15
-151 17 -256 19 -304 5 -32 -9 -39 -6 -131 62 -189 138 -289 177 -575 225
-104 17 -110 19 -113 43 -5 51 -36 156 -58 201 -28 56 -95 116 -140 125 -35 6
-44 28 -44 108 l0 41 63 15 c56 13 62 18 62 40 0 24 -3 25 -45 21 -100 -9 -95
-11 -98 41 -3 45 -2 46 30 53 66 14 108 36 108 56 0 30 -27 34 -86 14 -29 -10
-59 -15 -66 -12 -8 3 -20 25 -27 48 -23 79 -63 173 -96 224 -39 62 -303 395
-387 488 -140 157 -501 397 -678 453 -98 30 -116 41 -254 156 -157 131 -250
189 -471 298 -176 86 -582 230 -649 230 -39 0 -88 -197 -106 -425 -6 -77 -15
-180 -20 -230 -5 -49 -10 -122 -10 -161 l0 -72 -52 -44 c-139 -118 -256 -195
-393 -258 -170 -78 -176 -81 -345 -195 -129 -87 -180 -124 -350 -253 -73 -55
-295 -248 -315 -274 -5 -7 -32 -38 -58 -68 -27 -29 -58 -72 -69 -94 -11 -22
-29 -47 -40 -55 -18 -16 -17 -18 27 -86 59 -89 97 -128 220 -224 129 -100 293
-202 518 -321 l180 -96 52 -114 c28 -63 67 -137 85 -164 35 -52 151 -173 209
-220 18 -15 32 -28 30 -30 -2 -1 -38 -20 -79 -41 -41 -21 -98 -53 -125 -71
-65 -43 -175 -154 -232 -235 -75 -108 -243 -396 -271 -467 -25 -63 -26 -76
-25 -217 1 -174 32 -422 63 -516 12 -35 39 -98 61 -140 38 -73 39 -79 42 -190
3 -95 11 -141 46 -278 65 -256 158 -448 249 -519 114 -88 300 -184 466 -241
159 -55 209 -67 356 -86 112 -14 137 -14 240 -1 136 18 200 36 295 83 147 73
349 251 433 382 34 52 43 60 48 45 48 -139 113 -200 269 -252 169 -57 331 -65
415 -22 21 11 52 36 70 57 31 38 31 39 27 133 -2 52 -7 103 -12 114 -8 17 -4
18 66 10 108 -13 540 -10 709 5 80 7 192 21 249 32 58 10 108 19 112 19 4 0
10 -26 14 -57 4 -32 13 -70 21 -84 18 -36 69 -78 124 -102 63 -28 232 -27 344
2 90 24 228 88 275 127 18 15 33 25 34 23 1 -2 12 -25 24 -50 29 -62 120 -159
182 -192 171 -93 489 -125 676 -67 159 49 296 139 399 262 l48 57 40 -60 c72
-112 252 -274 405 -363 86 -51 196 -83 339 -101 111 -14 137 -14 248 0 180 22
370 77 551 160 120 54 300 171 350 227 80 89 157 270 217 503 33 133 41 180
44 282 3 116 5 124 38 185 78 142 96 216 126 513 32 321 23 362 -157 658 -206
340 -293 434 -510 547 -74 39 -100 60 -74 60 16 0 160 141 207 201 40 52 164
289 164 314 0 12 20 23 200 117 204 107 431 248 551 344 164 130 283 289 236
315 -8 5 -29 33 -46 64 -59 105 -322 352 -541 509 -36 25 -114 83 -175 127
-164 120 -274 185 -439 261 -151 69 -276 150 -409 262 l-63 54 -27 328 c-34
417 -73 606 -125 603 -9 0 -53 -11 -97 -24z m84 -87 c24 -75 43 -193 57 -353
25 -307 35 -456 29 -465 -9 -14 67 -83 215 -194 109 -82 164 -114 285 -171
214 -99 360 -193 711 -457 190 -143 404 -356 451 -448 26 -53 21 -67 -59 -151
-142 -151 -451 -351 -815 -529 -67 -33 -73 -39 -91 -85 -38 -96 -96 -210 -138
-270 -77 -110 -210 -222 -375 -319 l-47 -27 -63 71 c-45 51 -68 70 -83 68 -29
-4 -31 -38 -4 -68 43 -47 78 -92 78 -99 0 -5 -23 -18 -50 -29 l-50 -21 -33 44
c-35 48 -49 57 -72 49 -23 -9 -18 -43 11 -76 14 -17 21 -34 17 -38 -13 -12
-182 -50 -292 -65 -57 -7 -105 -16 -108 -19 -3 -3 -28 14 -57 36 -64 51 -115
73 -218 94 -122 25 -242 5 -328 -53 -46 -30 -84 -29 -212 7 -134 37 -188 59
-188 75 0 6 9 38 20 71 35 100 35 101 -120 162 -150 59 -331 115 -430 132 -36
6 -75 13 -88 16 -27 5 -216 166 -266 226 -90 108 -199 311 -270 500 -37 99
-41 131 -29 226 5 49 8 53 29 48 33 -9 54 3 54 29 0 23 -17 35 -51 35 -21 0
-22 6 -13 62 l6 37 52 -2 c46 -2 51 0 54 20 3 19 -4 25 -42 35 -25 7 -46 15
-46 19 0 20 65 190 88 229 36 63 170 237 399 518 120 148 539 426 719 477 85
25 107 38 229 139 60 50 128 106 151 123 78 61 336 205 464 258 98 42 462 164
487 165 16 0 24 -9 32 -32z m-6035 -285 c328 -109 566 -236 792 -423 164 -135
164 -136 261 -165 95 -29 175 -71 333 -173 201 -130 323 -235 407 -349 21 -28
90 -116 154 -195 152 -187 181 -231 219 -330 50 -131 50 -135 1 -148 -35 -9
-41 -15 -41 -37 0 -25 1 -26 49 -20 53 6 61 -1 61 -65 0 -22 -5 -28 -22 -28
-33 0 -51 -14 -46 -36 2 -14 13 -20 40 -22 36 -3 37 -4 43 -50 3 -26 7 -58 9
-71 4 -28 -20 -108 -71 -231 -70 -169 -170 -335 -256 -425 -92 -95 -451 -388
-530 -432 -159 -89 -469 -205 -580 -219 -51 -6 -62 -4 -96 19 -62 41 -124 57
-219 57 -128 0 -219 -28 -304 -93 l-47 -36 -103 15 c-124 17 -286 52 -293 64
-3 5 6 22 21 39 29 35 29 64 -1 70 -13 2 -32 -11 -60 -42 l-40 -45 -48 21 -48
22 51 63 c52 64 60 94 26 100 -12 3 -38 -18 -80 -64 l-61 -67 -33 17 c-137 71
-310 219 -381 326 -33 49 -117 222 -135 275 -4 13 -56 45 -154 94 -165 82
-427 239 -535 320 -90 67 -210 184 -233 226 -17 31 -16 33 12 84 32 61 191
226 314 328 110 91 399 303 528 388 56 36 161 93 234 126 124 56 217 104 228
119 3 3 21 17 40 30 51 35 169 129 213 169 l37 35 0 86 c0 87 22 368 41 520 9
73 29 174 44 218 6 17 24 12 259 -65z m3386 -2120 c41 -115 120 -281 178 -375
49 -80 52 -79 -96 -47 -114 25 -216 73 -260 124 -27 31 -32 43 -32 89 0 89 44
210 97 264 12 13 63 42 73 42 3 0 21 -44 40 -97z m-1017 -82 c74 -48 140 -229
115 -317 -10 -39 -64 -84 -140 -119 -51 -23 -255 -72 -264 -63 -2 3 10 27 28
54 49 77 142 270 179 372 18 50 38 92 44 92 5 0 23 -8 38 -19z m360 -367 c218
-37 325 -84 501 -218 77 -59 93 -67 120 -62 128 23 286 11 653 -50 152 -25
346 -81 498 -145 l73 -31 -13 -41 c-22 -72 -54 -146 -115 -267 -80 -161 -132
-238 -236 -355 -49 -55 -116 -133 -148 -173 -55 -68 -122 -130 -130 -121 -1 2
-9 33 -16 69 -33 161 -64 218 -95 177 -11 -16 -10 -29 7 -90 21 -77 68 -420
68 -502 0 -148 -99 -507 -186 -675 -52 -100 -97 -156 -178 -218 l-59 -45 -57
11 c-78 17 -167 15 -230 -4 -129 -38 -291 -133 -359 -210 -35 -40 -41 -43
-141 -63 -276 -55 -766 -78 -995 -47 -149 20 -217 41 -354 107 -164 79 -234
127 -403 277 -180 160 -187 167 -263 282 -124 187 -182 399 -155 565 9 57 39
301 40 326 0 4 24 22 53 40 90 57 176 131 206 178 53 84 67 230 31 320 -11 28
-16 52 -12 54 4 3 27 8 51 12 57 9 243 73 356 122 140 60 224 106 302 164 88
67 361 295 428 360 48 46 53 48 135 59 125 17 207 39 283 77 73 36 142 93 152
124 8 24 5 24 188 -7z m3819 -645 c123 -64 201 -122 272 -202 50 -58 170 -230
183 -264 3 -8 39 -71 79 -140 76 -131 111 -216 120 -299 6 -52 -21 -372 -36
-434 -5 -19 -16 -65 -25 -103 -18 -81 -71 -197 -133 -292 -147 -229 -442 -415
-658 -415 -115 0 -223 79 -441 326 -126 142 -264 230 -377 241 -126 11 -243
-35 -369 -145 -22 -18 -41 -32 -43 -30 -2 2 37 104 86 226 90 222 90 223 90
311 0 48 -6 132 -14 187 -8 54 -17 125 -19 156 -5 53 -4 57 12 49 29 -16 91
-84 111 -121 10 -20 21 -53 25 -73 6 -33 11 -37 36 -37 26 0 29 3 29 35 0 48
-45 138 -94 189 -23 23 -91 75 -152 114 -243 158 -270 189 -295 340 -15 91 -3
135 58 202 62 70 125 95 238 95 125 0 215 -29 284 -91 29 -26 61 -64 72 -85
14 -29 26 -39 43 -39 29 0 36 16 23 53 -5 15 -7 30 -4 33 3 3 49 12 103 20 55
8 146 26 204 40 l105 25 28 -33 c15 -18 34 -46 43 -61 11 -20 22 -27 37 -25
35 5 33 44 -3 95 -18 25 -28 48 -24 52 5 5 28 16 52 25 l44 16 51 -46 c65 -59
91 -71 112 -54 21 18 19 27 -12 53 -15 12 -40 35 -56 51 l-28 29 58 38 c32 20
64 38 71 38 8 1 59 -22 114 -50z m-7135 -95 c32 -21 60 -39 62 -41 7 -5 -41
-53 -71 -71 -31 -18 -36 -43 -13 -62 12 -10 23 -6 63 24 27 20 56 46 64 57 14
22 14 22 61 4 26 -10 50 -22 53 -27 4 -5 -8 -30 -26 -54 -35 -49 -36 -77 -4
-82 16 -2 31 10 58 48 20 28 42 53 49 56 7 2 60 -7 118 -21 57 -14 146 -30
197 -37 87 -11 92 -12 85 -32 -13 -41 -9 -61 14 -64 16 -2 28 7 48 37 54 87
119 130 232 157 157 37 295 -9 369 -121 39 -60 34 -186 -11 -274 -28 -56 -78
-98 -255 -213 -63 -42 -129 -91 -147 -109 -61 -65 -102 -173 -78 -205 13 -19
43 -13 49 8 21 72 45 118 86 159 25 27 51 49 57 49 13 0 9 -63 -13 -207 -32
-213 -3 -376 106 -593 22 -44 40 -82 40 -85 0 -3 -26 16 -57 42 -229 186 -459
148 -688 -113 -124 -141 -238 -248 -302 -282 -52 -27 -71 -32 -129 -32 -159 0
-332 84 -496 238 -85 81 -141 158 -201 277 -59 120 -84 221 -108 455 -20 184
-20 198 -5 269 16 72 50 145 145 311 140 245 229 357 346 439 33 23 232 131
242 131 1 0 29 -16 60 -36z m5289 -13 c65 -21 138 -42 162 -46 23 -4 42 -8 42
-9 0 -1 -9 -20 -19 -42 -29 -59 -34 -102 -22 -190 14 -97 41 -155 101 -214 45
-45 191 -150 208 -150 5 0 15 -55 21 -122 7 -68 18 -148 24 -178 6 -30 10 -98
10 -150 -1 -94 -2 -98 -70 -265 -39 -93 -73 -179 -78 -190 -5 -15 -13 3 -31
73 -54 216 -157 380 -325 518 l-65 53 -13 83 c-28 189 -77 355 -151 514 l-47
101 61 126 c33 70 64 127 67 127 3 0 60 -17 125 -39z m-286 -294 c0 -2 22 -57
49 -123 53 -131 90 -270 117 -439 15 -96 16 -125 6 -240 -17 -187 -42 -279
-116 -430 -35 -71 -73 -138 -85 -149 -20 -18 -21 -18 -68 2 -27 11 -83 27
-127 36 -157 32 -247 16 -352 -64 -30 -22 -54 -38 -54 -35 0 3 8 22 19 43 21
43 83 229 106 322 45 178 55 323 34 490 l-10 84 28 21 c54 39 107 91 162 160
31 39 98 115 149 170 51 55 101 112 110 127 13 23 32 37 32 25z m334 -784 c79
-77 122 -141 178 -261 62 -134 72 -189 72 -412 1 -194 1 -195 -33 -305 -19
-60 -49 -139 -67 -174 -19 -35 -34 -69 -34 -75 0 -16 -62 -105 -107 -152 -60
-63 -113 -100 -214 -149 -109 -53 -171 -65 -327 -65 -134 0 -229 13 -324 46
-202 68 -310 251 -278 470 19 127 65 209 185 330 141 142 197 162 370 129 141
-27 242 -90 320 -199 41 -57 63 -68 85 -41 10 13 8 23 -16 58 -16 23 -53 66
-82 95 l-52 53 24 32 c32 43 128 238 154 312 23 69 48 198 58 303 4 39 9 72
13 72 3 0 37 -30 75 -67z m887 -500 c77 -40 199 -151 322 -295 68 -79 213
-191 276 -213 60 -20 180 -19 267 4 158 41 292 124 468 290 l58 56 -5 -66 c-9
-97 -81 -375 -123 -471 -86 -194 -126 -241 -286 -336 -342 -202 -695 -287
-984 -237 -150 26 -232 63 -369 165 -149 111 -292 270 -311 347 -4 16 9 63 40
141 54 138 84 255 88 337 l3 60 75 75 c128 128 225 179 341 180 58 0 77 -5
140 -37z m-5272 -34 c65 -24 94 -43 180 -118 65 -56 216 -236 231 -275 5 -12
16 -73 25 -137 19 -131 17 -147 -39 -254 -42 -82 -214 -254 -331 -331 -61 -40
-123 -71 -190 -94 -99 -34 -102 -34 -275 -35 -160 0 -184 3 -285 29 -158 41
-266 81 -380 140 -246 129 -293 170 -364 320 -54 112 -78 183 -115 332 -28
110 -49 244 -41 252 3 3 21 -13 41 -36 20 -24 73 -71 117 -106 196 -152 329
-207 498 -207 63 -1 86 4 130 27 51 25 202 138 224 167 121 158 276 296 373
332 56 20 139 18 201 -6z m600 -430 c52 -52 190 -139 331 -209 89 -44 167 -80
174 -80 16 -1 60 -40 80 -72 25 -38 26 -146 3 -181 -53 -82 -270 -75 -479 15
-70 30 -133 104 -158 186 -20 65 -70 368 -70 425 l0 29 51 -49 c29 -26 59 -55
68 -64z m2605 0 c-10 -27 -18 -91 -21 -167 l-6 -122 -36 -32 c-52 -45 -203
-114 -293 -132 -117 -24 -222 -21 -285 8 -64 30 -84 59 -90 133 -3 47 0 64 16
90 44 70 262 199 378 224 49 10 71 9 146 -6 100 -20 126 -16 169 25 17 17 33
29 35 27 2 -2 -4 -24 -13 -48z"/>
<path d="M6235 4862 c-54 -25 -120 -102 -145 -168 -24 -66 -27 -172 -5 -214
36 -71 118 -82 194 -26 46 34 104 118 116 167 6 24 4 25 -30 21 -65 -8 -99 54
-55 98 24 24 63 26 84 4 15 -14 16 -14 16 6 0 30 -24 82 -47 103 -31 27 -82
30 -128 9z"/>
<path d="M7545 4158 c-44 -15 -90 -53 -115 -93 -44 -72 -21 -201 45 -253 129
-102 312 -46 355 107 9 35 5 55 -8 35 -10 -16 -48 -34 -70 -34 -27 0 -72 48
-72 77 0 13 12 35 26 50 22 22 31 24 66 19 38 -6 40 -6 27 11 -61 79 -164 112
-254 81z"/>
<path d="M6366 3971 c-12 -19 16 -69 45 -81 29 -12 96 -10 132 5 14 6 17 2 17
-26 0 -54 18 -103 46 -130 32 -30 123 -35 151 -7 23 24 10 33 -25 19 -83 -35
-136 10 -137 114 -1 35 -4 67 -7 70 -3 3 -28 -1 -56 -10 -73 -24 -114 -17
-132 22 -15 33 -25 40 -34 24z"/>
<path d="M3513 4685 c-35 -15 -63 -60 -63 -102 0 -21 3 -24 12 -15 17 17 64
15 82 -4 39 -39 -1 -111 -55 -100 -38 7 -38 -13 1 -80 57 -101 151 -154 217
-122 16 7 38 33 51 58 20 38 23 55 18 104 -11 112 -78 218 -161 257 -48 22
-60 23 -102 4z"/>
<path d="M2201 3999 c-35 -14 -80 -48 -92 -70 -10 -19 -8 -20 23 -14 70 13
117 -66 68 -115 -27 -27 -77 -26 -108 3 -23 21 -24 21 -19 2 3 -11 8 -34 12
-51 8 -39 58 -91 110 -115 162 -74 346 90 279 249 -19 47 -60 90 -103 108 -38
16 -134 18 -170 3z"/>
<path d="M3460 3810 c0 -11 -12 -27 -26 -37 -24 -16 -30 -16 -89 0 -35 9 -65
17 -68 17 -3 0 -7 -32 -9 -71 -3 -63 -7 -74 -31 -95 -31 -26 -63 -30 -102 -12
-31 14 -44 3 -22 -19 27 -27 110 -23 142 7 26 25 45 76 45 123 0 28 1 29 43
21 66 -13 96 -9 122 16 28 26 34 70 10 70 -8 0 -15 -9 -15 -20z"/>
<path d="M3243 1888 c-17 -6 -46 -23 -64 -37 l-32 -27 38 0 c29 0 43 -7 61
-28 32 -37 30 -71 -5 -107 -40 -39 -80 -39 -120 2 l-31 31 0 -34 c0 -57 20
-108 58 -150 88 -98 225 -105 325 -18 96 85 101 228 9 316 -60 58 -156 78
-239 52z"/>
<path d="M4969 1836 c-20 -7 -52 -24 -70 -37 l-34 -24 44 -6 c57 -7 85 -39 78
-86 -8 -44 -29 -64 -77 -70 -32 -5 -43 -1 -65 21 -14 14 -28 26 -30 26 -10 0
-5 -48 10 -97 30 -102 123 -160 239 -151 84 7 143 46 180 120 44 88 34 166
-30 237 -66 73 -158 98 -245 67z"/>
<path d="M3820 1084 c0 -9 16 -32 35 -50 56 -53 134 -58 197 -13 29 21 32 21
57 5 60 -39 97 -50 170 -51 51 0 76 4 78 13 4 9 -13 12 -60 12 -75 0 -118 13
-170 51 l-39 27 -46 -29 c-71 -45 -146 -35 -186 25 -19 29 -36 34 -36 10z"/>
<path d="M9280 486 c0 -11 -10 -14 -43 -11 l-44 3 -18 -49 c-17 -50 -52 -78
-77 -63 -6 4 -8 2 -4 -4 9 -15 -21 -42 -47 -42 -22 0 -21 -1 3 -20 14 -11 32
-19 40 -19 29 2 30 -1 15 -37 -8 -20 -15 -41 -15 -46 0 -5 23 -8 51 -6 l52 3
13 46 c15 50 18 52 105 64 l45 7 19 -61 18 -61 53 0 53 0 -21 55 c-11 31 -18
58 -15 61 3 3 17 -2 31 -11 25 -16 25 -16 32 10 4 17 18 33 38 41 l31 15 -32
-4 c-26 -3 -30 -1 -22 10 9 10 8 13 -2 14 -8 1 -23 2 -34 3 -11 1 -31 3 -45 4
-20 2 -22 4 -10 12 9 6 10 10 3 10 -23 0 -24 -20 -1 -30 18 -8 13 -9 -21 -4
-31 4 -46 2 -52 -7 -5 -8 -9 -9 -9 -4 0 10 -54 10 -117 1 -18 -3 -33 -1 -33 4
0 6 11 10 25 10 18 0 23 4 19 15 -8 19 24 87 37 80 5 -4 9 -13 9 -21 0 -8 4
-13 9 -10 4 3 6 -6 3 -19 -4 -24 -2 -25 47 -25 53 0 65 12 31 30 -11 6 -20 16
-20 23 0 7 4 6 10 -3 9 -13 10 -13 10 0 0 8 -4 21 -9 29 -7 11 -10 9 -16 -8
-3 -12 -10 -19 -15 -16 -5 3 -11 -3 -13 -12 -3 -11 -5 -8 -6 10 0 15 -4 26 -8
25 -5 -1 -18 3 -30 10 -19 11 -23 10 -23 -2z"/>
</g>
</svg>
